<svg xmlns="http://www.w3.org/2000/svg" xmlns:xlink="http://www.w3.org/1999/xlink" width="500" zoomAndPan="magnify" viewBox="0 0 375 374.999991" height="500" preserveAspectRatio="xMidYMid meet" version="1.2"><defs/><g id="e2c75979fa"><path style="fill:none;stroke-width:1.5;stroke-linecap:round;stroke-linejoin:round;stroke:#000000;stroke-opacity:1;stroke-miterlimit:4;" d="M 1.750017 2.750266 L 14.250018 2.750266 L 14.250018 13.250267 L 1.750017 13.250267 Z M 1.750017 2.750266 " transform="matrix(5.484375,0,0,5.484375,54.941312,143.576667)"/><path style="fill:none;stroke-width:1.5;stroke-linecap:round;stroke-linejoin:round;stroke:#000000;stroke-opacity:1;stroke-miterlimit:4;" d="M 8.750018 10.250266 L 11.250018 10.250266 M 4.750017 5.750266 L 7.250017 8.000266 L 4.750017 10.250266 " transform="matrix(5.484375,0,0,5.484375,54.941312,143.576667)"/><g style="fill:#000000;fill-opacity:1;"><g transform="translate(155.824828, 176.637845)"><path style="stroke:none" d="M 4.21875 0 C 3.976562 0 3.859375 -0.117188 3.859375 -0.359375 L 3.859375 -24.46875 C 3.859375 -24.695312 3.976562 -24.8125 4.21875 -24.8125 L 4.890625 -24.8125 C 5.128906 -24.8125 5.25 -24.695312 5.25 -24.46875 L 5.25 -1.375 C 5.25 -1.28125 5.296875 -1.234375 5.390625 -1.234375 L 18.265625 -1.234375 C 18.492188 -1.234375 18.609375 -1.117188 18.609375 -0.890625 L 18.609375 -0.359375 C 18.609375 -0.117188 18.492188 0 18.265625 0 Z M 4.21875 0 "/></g></g><g style="fill:#000000;fill-opacity:1;"><g transform="translate(175.921201, 176.637845)"><path style="stroke:none" d="M 19.421875 -23.9375 C 19.421875 -23.695312 19.304688 -23.578125 19.078125 -23.578125 L 5.390625 -23.578125 C 5.296875 -23.578125 5.25 -23.53125 5.25 -23.4375 L 5.25 -13.21875 C 5.25 -13.125 5.296875 -13.078125 5.390625 -13.078125 L 15.171875 -13.078125 C 15.410156 -13.078125 15.53125 -12.960938 15.53125 -12.734375 L 15.53125 -12.15625 C 15.53125 -11.925781 15.410156 -11.8125 15.171875 -11.8125 L 5.390625 -11.8125 C 5.296875 -11.8125 5.25 -11.765625 5.25 -11.671875 L 5.25 -1.375 C 5.25 -1.28125 5.296875 -1.234375 5.390625 -1.234375 L 19.078125 -1.234375 C 19.304688 -1.234375 19.421875 -1.117188 19.421875 -0.890625 L 19.421875 -0.359375 C 19.421875 -0.117188 19.304688 0 19.078125 0 L 4.21875 0 C 3.976562 0 3.859375 -0.117188 3.859375 -0.359375 L 3.859375 -24.46875 C 3.859375 -24.695312 3.976562 -24.8125 4.21875 -24.8125 L 19.078125 -24.8125 C 19.304688 -24.8125 19.421875 -24.695312 19.421875 -24.46875 Z M 19.421875 -23.9375 "/></g></g><g style="fill:#000000;fill-opacity:1;"><g transform="translate(197.718844, 176.637845)"><path style="stroke:none" d="M 17.765625 -24.8125 C 17.992188 -24.8125 18.109375 -24.695312 18.109375 -24.46875 L 18.109375 -23.9375 C 18.109375 -23.695312 17.992188 -23.578125 17.765625 -23.578125 L 10.640625 -23.578125 C 10.546875 -23.578125 10.5 -23.53125 10.5 -23.4375 L 10.5 -0.359375 C 10.5 -0.117188 10.378906 0 10.140625 0 L 9.46875 0 C 9.226562 0 9.109375 -0.117188 9.109375 -0.359375 L 9.109375 -23.4375 C 9.109375 -23.53125 9.0625 -23.578125 8.96875 -23.578125 L 2.125 -23.578125 C 1.882812 -23.578125 1.765625 -23.695312 1.765625 -23.9375 L 1.765625 -24.46875 C 1.765625 -24.695312 1.882812 -24.8125 2.125 -24.8125 Z M 17.765625 -24.8125 "/></g></g><g style="fill:#000000;fill-opacity:1;"><g transform="translate(217.637996, 176.637845)"><path style="stroke:none" d="M 3.515625 -24.8125 C 3.628906 -24.8125 3.707031 -24.769531 3.75 -24.6875 C 3.800781 -24.601562 3.804688 -24.503906 3.765625 -24.390625 L 1.28125 -18.1875 C 1.207031 -18 1.078125 -17.90625 0.890625 -17.90625 L 0.421875 -17.90625 C 0.160156 -17.90625 0.0664062 -18.035156 0.140625 -18.296875 L 2.296875 -24.53125 C 2.367188 -24.71875 2.515625 -24.8125 2.734375 -24.8125 Z M 3.515625 -24.8125 "/></g></g><g style="fill:#000000;fill-opacity:1;"><g transform="translate(221.572211, 176.637845)"><path style="stroke:none" d="M 10.53125 0.28125 C 8 0.28125 5.992188 -0.285156 4.515625 -1.421875 C 3.035156 -2.554688 2.296875 -4.078125 2.296875 -5.984375 L 2.296875 -7.234375 C 2.296875 -7.472656 2.414062 -7.59375 2.65625 -7.59375 L 3.265625 -7.59375 C 3.492188 -7.59375 3.609375 -7.472656 3.609375 -7.234375 L 3.609375 -6.09375 C 3.609375 -4.5625 4.238281 -3.320312 5.5 -2.375 C 6.769531 -1.425781 8.484375 -0.953125 10.640625 -0.953125 C 12.710938 -0.953125 14.304688 -1.390625 15.421875 -2.265625 C 16.535156 -3.140625 17.09375 -4.332031 17.09375 -5.84375 C 17.09375 -6.789062 16.851562 -7.609375 16.375 -8.296875 C 15.90625 -8.984375 15.171875 -9.625 14.171875 -10.21875 C 13.179688 -10.820312 11.78125 -11.515625 9.96875 -12.296875 C 8.125 -13.078125 6.734375 -13.726562 5.796875 -14.25 C 4.859375 -14.769531 4.117188 -15.421875 3.578125 -16.203125 C 3.035156 -16.984375 2.765625 -17.976562 2.765625 -19.1875 C 2.765625 -21.09375 3.40625 -22.550781 4.6875 -23.5625 C 5.976562 -24.582031 7.796875 -25.09375 10.140625 -25.09375 C 12.691406 -25.09375 14.675781 -24.519531 16.09375 -23.375 C 17.507812 -22.226562 18.21875 -20.6875 18.21875 -18.75 L 18.21875 -17.90625 C 18.21875 -17.664062 18.101562 -17.546875 17.875 -17.546875 L 17.1875 -17.546875 C 16.957031 -17.546875 16.84375 -17.664062 16.84375 -17.90625 L 16.84375 -18.640625 C 16.84375 -20.234375 16.25 -21.5 15.0625 -22.4375 C 13.882812 -23.382812 12.21875 -23.859375 10.0625 -23.859375 C 8.15625 -23.859375 6.6875 -23.460938 5.65625 -22.671875 C 4.625 -21.878906 4.109375 -20.738281 4.109375 -19.25 C 4.109375 -18.257812 4.335938 -17.457031 4.796875 -16.84375 C 5.265625 -16.226562 5.925781 -15.6875 6.78125 -15.21875 C 7.644531 -14.757812 8.976562 -14.164062 10.78125 -13.4375 C 12.550781 -12.707031 13.976562 -12.003906 15.0625 -11.328125 C 16.15625 -10.648438 16.992188 -9.878906 17.578125 -9.015625 C 18.171875 -8.160156 18.46875 -7.140625 18.46875 -5.953125 C 18.46875 -4.066406 17.773438 -2.554688 16.390625 -1.421875 C 15.015625 -0.285156 13.0625 0.28125 10.53125 0.28125 Z M 10.53125 0.28125 "/></g></g><g style="fill:#000000;fill-opacity:1;"><g transform="translate(242.235674, 176.637845)"><path style="stroke:none" d=""/></g></g><g style="fill:#000000;fill-opacity:1;"><g transform="translate(249.324338, 176.637845)"><path style="stroke:none" d="M 17.765625 -24.8125 C 17.992188 -24.8125 18.109375 -24.695312 18.109375 -24.46875 L 18.109375 -23.9375 C 18.109375 -23.695312 17.992188 -23.578125 17.765625 -23.578125 L 10.640625 -23.578125 C 10.546875 -23.578125 10.5 -23.53125 10.5 -23.4375 L 10.5 -0.359375 C 10.5 -0.117188 10.378906 0 10.140625 0 L 9.46875 0 C 9.226562 0 9.109375 -0.117188 9.109375 -0.359375 L 9.109375 -23.4375 C 9.109375 -23.53125 9.0625 -23.578125 8.96875 -23.578125 L 2.125 -23.578125 C 1.882812 -23.578125 1.765625 -23.695312 1.765625 -23.9375 L 1.765625 -24.46875 C 1.765625 -24.695312 1.882812 -24.8125 2.125 -24.8125 Z M 17.765625 -24.8125 "/></g></g><g style="fill:#000000;fill-opacity:1;"><g transform="translate(267.399792, 176.637845)"><path style="stroke:none" d="M 18.078125 0 C 17.867188 0 17.726562 -0.09375 17.65625 -0.28125 L 16.0625 -5.171875 C 16.039062 -5.242188 15.992188 -5.28125 15.921875 -5.28125 L 4.5 -5.28125 C 4.425781 -5.28125 4.378906 -5.242188 4.359375 -5.171875 L 2.796875 -0.28125 C 2.722656 -0.09375 2.582031 0 2.375 0 L 1.703125 0 C 1.441406 0 1.347656 -0.128906 1.421875 -0.390625 L 9.328125 -24.53125 C 9.398438 -24.71875 9.539062 -24.8125 9.75 -24.8125 L 10.671875 -24.8125 C 10.878906 -24.8125 11.019531 -24.71875 11.09375 -24.53125 L 19.078125 -0.390625 L 19.109375 -0.25 C 19.109375 -0.0820312 19.003906 0 18.796875 0 Z M 4.828125 -6.625 C 4.796875 -6.582031 4.796875 -6.539062 4.828125 -6.5 C 4.867188 -6.46875 4.914062 -6.453125 4.96875 -6.453125 L 15.5 -6.453125 C 15.539062 -6.453125 15.578125 -6.46875 15.609375 -6.5 C 15.648438 -6.539062 15.660156 -6.582031 15.640625 -6.625 L 10.3125 -22.875 C 10.289062 -22.914062 10.253906 -22.9375 10.203125 -22.9375 C 10.160156 -22.9375 10.128906 -22.914062 10.109375 -22.875 Z M 4.828125 -6.625 "/></g></g><g style="fill:#000000;fill-opacity:1;"><g transform="translate(287.886033, 176.637845)"><path style="stroke:none" d="M 4.21875 0 C 3.976562 0 3.859375 -0.117188 3.859375 -0.359375 L 3.859375 -24.46875 C 3.859375 -24.695312 3.976562 -24.8125 4.21875 -24.8125 L 4.890625 -24.8125 C 5.128906 -24.8125 5.25 -24.695312 5.25 -24.46875 L 5.25 -1.375 C 5.25 -1.28125 5.296875 -1.234375 5.390625 -1.234375 L 18.265625 -1.234375 C 18.492188 -1.234375 18.609375 -1.117188 18.609375 -0.890625 L 18.609375 -0.359375 C 18.609375 -0.117188 18.492188 0 18.265625 0 Z M 4.21875 0 "/></g></g><g style="fill:#000000;fill-opacity:1;"><g transform="translate(307.982407, 176.637845)"><path style="stroke:none" d="M 4.21875 0 C 3.976562 0 3.859375 -0.117188 3.859375 -0.359375 L 3.859375 -24.46875 C 3.859375 -24.695312 3.976562 -24.8125 4.21875 -24.8125 L 4.890625 -24.8125 C 5.128906 -24.8125 5.25 -24.695312 5.25 -24.46875 L 5.25 -11.5625 C 5.25 -11.507812 5.265625 -11.472656 5.296875 -11.453125 C 5.335938 -11.429688 5.378906 -11.441406 5.421875 -11.484375 L 17.96875 -24.640625 C 18.09375 -24.753906 18.238281 -24.8125 18.40625 -24.8125 L 19.140625 -24.8125 C 19.285156 -24.8125 19.378906 -24.769531 19.421875 -24.6875 C 19.472656 -24.601562 19.453125 -24.503906 19.359375 -24.390625 L 10.359375 -14.71875 C 10.304688 -14.664062 10.304688 -14.59375 10.359375 -14.5 L 20.203125 -0.421875 C 20.253906 -0.378906 20.28125 -0.3125 20.28125 -0.21875 C 20.28125 -0.164062 20.253906 -0.113281 20.203125 -0.0625 C 20.160156 -0.0195312 20.09375 0 20 0 L 19.140625 0 C 18.953125 0 18.8125 -0.0703125 18.71875 -0.21875 L 9.390625 -13.46875 C 9.367188 -13.519531 9.332031 -13.546875 9.28125 -13.546875 C 9.238281 -13.546875 9.207031 -13.53125 9.1875 -13.5 L 5.3125 -9.609375 C 5.269531 -9.554688 5.25 -9.5 5.25 -9.4375 L 5.25 -0.359375 C 5.25 -0.117188 5.128906 0 4.890625 0 Z M 4.21875 0 "/></g></g><g style="fill:#000000;fill-opacity:1;"><g transform="translate(329.392721, 176.637845)"><path style="stroke:none" d=""/></g></g><g style="fill:#000000;fill-opacity:1;"><g transform="translate(155.824828, 225.517461)"><path style="stroke:none" d="M 4.21875 0 C 3.976562 0 3.859375 -0.117188 3.859375 -0.359375 L 3.859375 -24.46875 C 3.859375 -24.695312 3.976562 -24.8125 4.21875 -24.8125 L 4.890625 -24.8125 C 5.128906 -24.8125 5.25 -24.695312 5.25 -24.46875 L 5.25 -1.375 C 5.25 -1.28125 5.296875 -1.234375 5.390625 -1.234375 L 18.265625 -1.234375 C 18.492188 -1.234375 18.609375 -1.117188 18.609375 -0.890625 L 18.609375 -0.359375 C 18.609375 -0.117188 18.492188 0 18.265625 0 Z M 4.21875 0 "/></g></g><g style="fill:#000000;fill-opacity:1;"><g transform="translate(175.921201, 225.517461)"><path style="stroke:none" d="M 4.21875 0 C 3.976562 0 3.859375 -0.117188 3.859375 -0.359375 L 3.859375 -24.46875 C 3.859375 -24.695312 3.976562 -24.8125 4.21875 -24.8125 L 4.890625 -24.8125 C 5.128906 -24.8125 5.25 -24.695312 5.25 -24.46875 L 5.25 -0.359375 C 5.25 -0.117188 5.128906 0 4.890625 0 Z M 4.21875 0 "/></g></g><g style="fill:#000000;fill-opacity:1;"><g transform="translate(185.030135, 225.517461)"><path style="stroke:none" d="M 4.21875 0 C 3.976562 0 3.859375 -0.117188 3.859375 -0.359375 L 3.859375 -24.46875 C 3.859375 -24.695312 3.976562 -24.8125 4.21875 -24.8125 L 4.921875 -24.8125 C 5.085938 -24.8125 5.234375 -24.726562 5.359375 -24.5625 L 18.71875 -2.9375 C 18.738281 -2.875 18.769531 -2.847656 18.8125 -2.859375 C 18.863281 -2.867188 18.890625 -2.910156 18.890625 -2.984375 L 18.890625 -24.46875 C 18.890625 -24.695312 19.007812 -24.8125 19.25 -24.8125 L 19.921875 -24.8125 C 20.160156 -24.8125 20.28125 -24.695312 20.28125 -24.46875 L 20.28125 -0.359375 C 20.28125 -0.117188 20.160156 0 19.921875 0 L 19.1875 0 C 19.019531 0 18.875 -0.0820312 18.75 -0.25 L 5.421875 -21.90625 C 5.398438 -21.976562 5.363281 -22.007812 5.3125 -22 C 5.269531 -21.988281 5.25 -21.945312 5.25 -21.875 L 5.25 -0.359375 C 5.25 -0.117188 5.128906 0 4.890625 0 Z M 4.21875 0 "/></g></g><g style="fill:#000000;fill-opacity:1;"><g transform="translate(209.131606, 225.517461)"><path style="stroke:none" d="M 11.625 0.28125 C 10.039062 0.28125 8.640625 -0.0351562 7.421875 -0.671875 C 6.210938 -1.304688 5.269531 -2.207031 4.59375 -3.375 C 3.914062 -4.550781 3.578125 -5.894531 3.578125 -7.40625 L 3.578125 -24.46875 C 3.578125 -24.695312 3.695312 -24.8125 3.9375 -24.8125 L 4.609375 -24.8125 C 4.847656 -24.8125 4.96875 -24.695312 4.96875 -24.46875 L 4.96875 -7.296875 C 4.96875 -5.410156 5.570312 -3.878906 6.78125 -2.703125 C 8 -1.535156 9.613281 -0.953125 11.625 -0.953125 C 13.632812 -0.953125 15.253906 -1.535156 16.484375 -2.703125 C 17.710938 -3.878906 18.328125 -5.410156 18.328125 -7.296875 L 18.328125 -24.46875 C 18.328125 -24.695312 18.445312 -24.8125 18.6875 -24.8125 L 19.359375 -24.8125 C 19.597656 -24.8125 19.71875 -24.695312 19.71875 -24.46875 L 19.71875 -7.40625 C 19.71875 -5.894531 19.378906 -4.550781 18.703125 -3.375 C 18.023438 -2.207031 17.078125 -1.304688 15.859375 -0.671875 C 14.648438 -0.0351562 13.238281 0.28125 11.625 0.28125 Z M 11.625 0.28125 "/></g></g><g style="fill:#000000;fill-opacity:1;"><g transform="translate(232.382428, 225.517461)"><path style="stroke:none" d="M 1.765625 0 C 1.628906 0 1.539062 -0.0390625 1.5 -0.125 C 1.46875 -0.207031 1.488281 -0.304688 1.5625 -0.421875 L 9.25 -12.296875 C 9.300781 -12.367188 9.300781 -12.441406 9.25 -12.515625 L 1.5625 -24.390625 C 1.507812 -24.484375 1.484375 -24.554688 1.484375 -24.609375 C 1.484375 -24.742188 1.578125 -24.8125 1.765625 -24.8125 L 2.515625 -24.8125 C 2.679688 -24.8125 2.820312 -24.726562 2.9375 -24.5625 L 10 -13.609375 C 10.019531 -13.585938 10.050781 -13.578125 10.09375 -13.578125 C 10.144531 -13.578125 10.179688 -13.585938 10.203125 -13.609375 L 17.234375 -24.5625 C 17.347656 -24.726562 17.488281 -24.8125 17.65625 -24.8125 L 18.40625 -24.8125 C 18.539062 -24.8125 18.625 -24.769531 18.65625 -24.6875 C 18.695312 -24.601562 18.679688 -24.503906 18.609375 -24.390625 L 10.921875 -12.484375 C 10.898438 -12.410156 10.898438 -12.335938 10.921875 -12.265625 L 18.609375 -0.421875 C 18.660156 -0.328125 18.6875 -0.257812 18.6875 -0.21875 C 18.6875 -0.0703125 18.59375 0 18.40625 0 L 17.65625 0 C 17.488281 0 17.347656 -0.0820312 17.234375 -0.25 L 10.203125 -11.171875 C 10.179688 -11.210938 10.144531 -11.234375 10.09375 -11.234375 C 10.050781 -11.234375 10.019531 -11.210938 10 -11.171875 L 2.9375 -0.25 C 2.820312 -0.0820312 2.679688 0 2.515625 0 Z M 1.765625 0 "/></g></g></g></svg>